# xmcd
#
# Track frame offsets:
#	150
#	25345
#	44477
#	67640
#	91112
#	110915
#	139595
#	158027
#	176465
#	198285
#
# Disc length: 2940 seconds
#
# Revision: 1
# Processed by: cddbd v1.5PL3 Copyright (c) Steve Scherf et al.
# Submitted via: CDex 1.50Beta5
#
DISCID=7b0b7a0a
DTITLE=FATMAN BROTHERS - FATMAN BROTHERS
DYEAR=1995
DGENRE=Pop
TTITLE0=Class of 1987
TTITLE1=なぜ言うか
TTITLE2=FATMAN
TTITLE3=KARININE
TTITLE4=Fat You!
TTITLE5=下を向いててもとりあえず歩こう
TTITLE6=和尚
TTITLE7=Killing Dance
TTITLE8=ウ・ス・イ・ハ・イ・イ・ロ・ノ・ヘ・イ・ノ・
TTITLE9=あの素晴らしい愛をもう一度
EXTD=
EXTT0=
EXTT1=
EXTT2=
EXTT3=
EXTT4=
EXTT5=
EXTT6=
EXTT7=
EXTT8=
EXTT9=
PLAYORDER=
